# xmcd CD database file
#
# Track frame offsets:
#	150
#	16964
#	30121
#	48799
#	61713
#	74853
#	85981
#	99302
#	114062
#	128654
#	142521
#	155000
#	169404
#	184311
#	198036
#
# Disc length: 2766 seconds
#
# Revision: 1
# Processed by: cddbd v1.5.2PL0 Copyright (c) Steve Scherf et al.
# Submitted via: CDex 1.96
#
DISCID=b50acc0f
DTITLE=Frank Sinatra - The Greatest Hits
DYEAR=1900
DGENRE=Jazz
TTITLE0=I've Got You Under My Skin
TTITLE1=You Make Me Feel So Young
TTITLE2=Only The Lonely
TTITLE3=Blue Moon
TTITLE4=I Get A Kick Out You
TTITLE5=Come Rain Or Come Shine
TTITLE6=Begin The Beguine
TTITLE7=Where Or When
TTITLE8=Laura
TTITLE9=Night And Day
TTITLE10=Saturday Night
TTITLE11=Day By Day
TTITLE12=From The Bottom Of My Heart
TTITLE13=Whispering
TTITLE14=Siesta
EXTD=
EXTT0=
EXTT1=
EXTT2=
EXTT3=
EXTT4=
EXTT5=
EXTT6=
EXTT7=
EXTT8=
EXTT9=
EXTT10=
EXTT11=
EXTT12=
EXTT13=
EXTT14=
PLAYORDER=
